<svg version="1" xmlns="http://www.w3.org/2000/svg" width="1661.333" height="1661.333" viewBox="0 0 1246.000000 1246.000000"><path d="M745.8 111.5c-.2.2-3 .6-6.3.9-3.3.4-7.1.8-8.5 1.1-1.4.2-4.1.7-6 .9-10.1 1.5-16.8 2.9-27.5 5.6-4.4 1.1-8.8 2.2-9.7 2.4-5.8 1.5-24.2 7.6-34.8 11.7-23.6 9-51.6 22.4-74.1 35.5-6.3 3.7-12.9 7.5-14.7 8.5-21.5 12.4-83 55.7-101.2 71.2-1.4 1.2-5.9 4.9-10 8.2-8.6 6.8-25 20.4-29.5 24.3-1.7 1.5-8.8 7.6-15.8 13.6-7 6.1-12.7 11.3-12.7 11.7 0 .4.7.9 1.5 1.3.9.3 20 11.9 42.5 25.8 22.6 13.9 42.3 26 43.8 26.9 1.5.9 21.2 13 43.7 26.9 22.6 13.9 42.2 26 43.7 26.9 1.5.9 11.8 7.2 23 14.1 11.1 6.9 20.5 12.6 20.8 12.8.3.1 2.6-3 5-6.8 2.5-3.9 5.1-7.9 5.8-8.8.6-.9 8.9-13.6 18.3-28.2 9.5-14.6 19.5-30.1 22.4-34.5 2.8-4.4 11.4-17.7 19.1-29.5 15.1-23.4 19.8-30.7 21.4-33 .6-.8 8.7-13.4 18.1-28 9.4-14.6 19.9-30.8 23.3-36 12.4-19 37.1-57.1 38.6-59.5.8-1.3 5.3-8.2 10-15.4 4.7-7.2 9-13.9 9.5-14.8.6-1 4.5-7.1 8.7-13.5 8.4-12.9 10.1-15.8 9.6-16.3-.4-.4-19.3-3.9-27.3-5-4.3-.7-50.1-1.5-50.7-1z"/><path d="M1058.7 267.2c-2.1 3.5-5.8 9.8-8.2 14.3-1.2 2.2-12.8 22.7-25.7 45.5-12.9 22.8-24.7 43.7-26.2 46.5-1.6 2.7-4.5 7.9-6.6 11.5-2 3.6-4.8 8.5-6.2 11-3.9 7-23.5 41.5-29.3 51.5-2.9 4.9-6.4 11-7.7 13.5-1.4 2.5-4.8 8.5-7.7 13.4-2.8 4.9-5.1 9-5.1 9.2 0 .2-1.3 2.3-3 4.7-1.6 2.5-3 4.7-3 5 0 .3-2.7 5.1-6 10.7s-6 10.3-6 10.5c0 .2-2.6 4.8-5.8 10.2-3.3 5.4-9.6 16.1-14.2 23.8-12.3 20.9-17.7 27-28.8 32.6-5.5 2.9-7.2 3.2-15 3.3-9.7.1-12.4-.4-21.6-3.8-7.7-2.9-26.8-12.9-54.9-28.7-4.2-2.4-9-5.1-10.5-5.9-3.2-1.8-24.2-13.9-29.2-16.9-1.9-1.1-4.2-2.4-5-2.8-.8-.3-3.1-1.6-5-2.8-1.9-1.2-14.7-8.9-28.5-17-13.7-8.2-42.1-25.2-63-38-20.9-12.7-47.9-29.1-60-36.4-12.1-7.4-23.1-14.1-24.5-15-1.4-.8-3.4-2.1-4.5-2.7-2.1-1.2-37.7-22.7-92.3-55.9-17.2-10.5-32.5-19.7-34.1-20.6-1.5-.9-21.9-13.3-45.2-27.4-23.3-14.2-43.7-26.5-45.4-27.5-1.6-1-6.7-4-11.3-6.9-4.5-2.8-8.2-4.8-8.3-4.4 0 .5-.2 1.7-.4 2.8-.2 1.1-1.1 6.9-2 13-.9 6-2.7 17.7-4.1 26-1.4 8.2-2.8 16.3-3.1 18-.2 1.6-1.3 7.3-2.3 12.5-1.1 5.2-2.2 10.9-2.5 12.7-.6 3.7-5 24.2-7 32.8-3.6 15.3-10.7 43.9-12 48.2-.8 2.7-2.9 9.7-4.6 15.8-10.8 38.4-28.2 86.4-45.4 124.9-5.6 12.8-21.7 45.9-25.2 52.1-.7 1.1-3.7 6.7-6.9 12.5-30.6 56.4-70.9 112.6-117.9 164.5-18.4 20.3-59.2 60.3-74.3 72.7L0 882.9v146.6c0 90.1.4 146.5.9 146.3.9-.3 13.9-10.3 18.9-14.5 1.1-1 3.3-2.7 4.8-3.8 1.5-1.1 6.2-4.7 10.3-8.1 8.2-6.6 24.3-19.3 55.7-44 64.7-51 86-67.8 86.4-68.4 1.1-1.4 29.7-21.5 48-33.8 10.7-7.3 20-13.5 20.5-13.9 1.1-.9 37-23.4 41.5-26.1 26.1-15.4 29-17 46.5-26.6 11.7-6.4 46.6-24 55.6-27.9 1.9-.9 6.6-3 10.5-4.7 31.7-14.3 64.2-25.6 101.3-35.1 12.8-3.4 24.1-6.2 25-6.4.9-.2 5.2-1.3 9.6-2.5 4.4-1.2 11.5-3.1 15.8-4.1 4.2-1 11.6-3 16.5-4.3 4.8-1.4 9.8-2.7 11.2-3 1.4-.3 7-1.7 12.5-3.1 5.5-1.4 11.1-2.8 12.5-3.1 2.6-.5 24.9-5.6 33.5-7.6 2.8-.7 5.3-1.1 5.7-1 .4.1 1.8-.2 3.2-.7 1.3-.6 4.1-1.2 6.3-1.6 2.1-.3 5-.8 6.3-1 7.1-1.5 12.9-2.6 16-3.1 1.9-.3 4.6-.7 6-1 5.6-1 6.7-1.2 12.1-1.8 3.1-.4 6.7-.9 7.9-1.1 1.2-.2 4.8-.7 7.9-1 3.1-.4 6.6-.8 7.8-1 12.1-1.9 56.8-2.7 68.8-1.2 17 2.2 25.6 4 37 7.9 11.7 4 16.7 7.3 28.7 19 6.4 6.2 21.9 21.2 34.3 33.3 12.5 12.1 27.1 26.3 32.5 31.5 5.3 5.2 21.5 21 36 35 14.4 14 28.1 27.4 30.4 29.7 2.2 2.4 4.4 4.3 4.9 4.3.6 0 12.7-8.1 37.7-25.3 4.7-3.2 17.9-12.2 29.3-20 11.5-7.8 25.8-17.6 31.8-21.7 5.9-4.1 19.3-13.3 29.6-20.3 10.3-7.1 31.6-21.6 47.3-32.3 15.7-10.7 30.4-20.7 32.7-22.2 2.4-1.5 4.3-3.1 4.3-3.6 0-.6-7.1-12.8-15.7-27.3l-17.4-29c-.9-1.6-13.9-23.3-28.9-48.3-15-25-27.8-46.4-28.4-47.5-.6-1.1-5.8-9.7-11.4-19.1-8.8-14.6-10.2-17.6-9.7-20.2.3-1.8.7-4.4 1-6 .4-2.3 7.1-38.2 9-47.7.3-1.7.8-4.6 1.1-6.5.3-1.9.7-4.2.9-5 .2-.8.7-3.3 1-5.5.3-2.3.7-5.2 1-6.5.2-1.3.9-5.8 1.5-10s1.2-8.5 1.4-9.6c.2-1 .7-4.8 1.1-8.4.3-3.6.8-7.6 1-9 .7-5.2 1.4-11.7 2-18.5.4-3.9.8-9 1-11.5 3.2-37.1 2.4-90.9-2.1-128.9-1.3-11.3-1.7-14.6-3.5-24.6-2-11.5-2-11.9-3.8-20-1.1-4.7-3.5-13.1-4.8-16.5-.3-.8-.7-2.2-.9-3-.1-.8-2.8-6.6-5.9-12.7-6.2-12.3-13.4-20.8-21.6-25.6-6.8-4-9.5-4.3-11.2-1.5zM412.6 460.3c1.6.6 6.3 3.2 10.4 5.6 19.6 11.6 63.8 37.6 66.5 39.1 12.6 7.2 57.5 33.6 59.7 35.1 1.4 1.1 2.8 1.9 3.1 1.9.3 0 20.6 11.8 58.1 33.9 7.1 4.2 13.9 8.8 15 10.4 1.2 1.7 2.1 4.5 2.2 7.6.2 4.1-.4 6-3.8 11.7-2.2 3.8-5 8.7-6.3 10.9-2.1 3.7-21.4 36.6-28.2 48-1.6 2.7-3.2 5.7-3.6 6.5-.4.8-1.7 3.1-3 5.1-1.8 3-8.1 13.7-22.8 38.7-.9 1.5-10.3 17.5-20.9 35.7-10.6 18.1-20.3 34.6-21.6 36.7-1.3 2.1-2.4 4-2.4 4.2 0 .3-2.5 4.7-5.6 9.7-5.3 8.9-9 12.9-12.3 13.7-3.8.9-9.7.1-13-1.9-2-1.2-4.9-2.9-6.6-3.9-1.6-.9-16.3-9.5-32.5-19s-35.8-21-43.5-25.5c-7.7-4.5-17.5-10.3-21.8-12.9-4.3-2.5-8.1-4.6-8.4-4.6-.2 0-2.4-1.4-4.8-3-2.4-1.7-4.6-3-4.8-3-.3 0-11.1-6.3-24.2-14s-23.9-14-24.2-14c-.3 0-1.7-.8-3.1-1.9-2.6-1.8-7.9-5-13.2-7.8-1.4-.7-6.8-3.9-12-7-7.8-4.8-9.9-6.6-11.7-10.1-3.8-7.5-5.9-3.2 35.2-73.2 11.4-19.5 21.6-36.8 22.5-38.5 1-1.6 9.1-15.6 18.2-31s17.4-29.6 18.5-31.5c1.2-1.9 6.7-11.4 12.3-21 5.7-9.6 11.2-19.1 12.2-21 2.7-4.8 7.7-9.8 10.2-10.3 4.2-.8 7.4-.7 10.2.6z"/><path d="M435 505.2c-3.3 4.6-9.4 12.9-13.5 18.5l-7.5 10.2-15.2-9.4c-13.5-8.2-15.4-9.1-16.4-7.7-1 1.6-12.1 19.5-62.2 100.2-14.9 23.9-16.9 27.6-15.4 28.4.9.5 4.6 2.8 8.2 5.1l6.6 4.2 6.4-8.5c3.6-4.7 7-9 7.5-9.6.8-.9 12.1-15.9 13.1-17.5.2-.2 18.1 10.3 23.1 13.7 1 .6-.5 6.1-6.2 22.7-4.1 12-7.4 21.9-7.2 22 .1.1 4.5 2.9 9.8 6.2l9.6 6.1 9.8-16.2c5.5-8.8 10.8-17.5 12-19.3l2.1-3.1 9.9 6.4c5.5 3.5 11.5 7.1 13.3 8 1.8.9 3.5 2 3.7 2.4.5.8-6.1 16.1-14.4 33.5-2.1 4.4-3.8 8.1-3.7 8.1 0 .1 4.4 2.8 9.7 6.1l9.5 6 4.5-6.4c15.5-22.3 21-29.8 21.9-30.1.5-.2 7.3 3.6 15 8.4 11.9 7.5 14 9.1 13.6 10.9-.3 1.1-4.1 10.7-8.5 21.3l-7.9 19.3 7.6 5c4.3 2.7 8.2 4.9 8.7 4.9.6-.1 6.1-8.6 12.4-19 7-11.7 11.8-18.7 12.5-18.3.6.4 2.5 1.7 4.2 3 1.7 1.3 3.4 2.3 3.8 2.3.4 0 3.3 1.7 6.5 3.8 7.6 5.1 14 8.7 14.5 8.1.5-.6 12.4-21.8 17.1-30.4 2.1-3.9 4.2-7.6 4.8-8.3.6-.7 2-3.2 3.2-5.5 1.8-3.6 9.3-16.9 18.5-33.2 6.2-11 9.2-16.6 8.9-16.9-.2-.2-8.1-4.9-17.5-10.5l-17.1-10.3 2.8-13.1c1.5-7.3 3.9-17.8 5.2-23.3l2.4-10.2-4.6-2.9c-2.5-1.7-6.7-4.2-9.2-5.7l-4.6-2.6-13.4 18c-7.4 9.9-13.8 17.9-14.4 17.8-.5-.2-5.2-2.8-10.2-5.8-10.5-6.2-10.1-5.1-6.1-17.5 1.8-5.4 6-18.6 9.3-29.1l1.3-4-10.4-6.4c-5.7-3.5-10.6-6.1-10.8-5.9-.6.8-17.1 19.4-20.2 22.9-1.8 1.9-4.7 5.2-6.6 7.2l-3.3 3.8-4-2.5c-2.2-1.3-6.1-3.7-8.7-5.2-2.6-1.5-4.8-3.3-4.8-3.8 0-.6 3.5-10.5 7.8-22.2l7.8-21.1-8.6-5.6c-4.8-3.1-9-5.6-9.3-5.6-.4 0-3.4 3.7-6.7 8.2z"/></svg>