<svg xmlns="http://www.w3.org/2000/svg" width="60" height="78"><g fill="#b58900"><path fill-rule="evenodd" d="M14.3 55l30.4-4.5 5.5 3.5-4.5 4-30.5 4.5-5.4-4zm0 11l30.4-4.5 5.5 3.5-4.5 4-30.5 4.5-5.4-4zm0 11l30.4-4.8 5.5 3.3-2 2.5h-34zM9.8 42.5h40.5V45l-4.5 2-30.5 4.5-5.6-4z"/><path d="M3 0a3 3 0 0 0-3 3v35a3 3 0 0 0 3 3h54a3 3 0 0 0 3-3V3a3 3 0 0 0-3-3H3zm1 5.5h1.5v30H4v-30zm4 0h1.5v30H8v-30zm4.5 0H14v30h-1.5v-30zm4 0H18v30h-1.5v-30zm4.5 0h1.5v30H21v-30zm4 0h1.5v30H25v-30zm4.3 0h1.4v30h-1.4v-30zm4.2 0H35v30h-1.5v-30zm4.5 0h1.5v30H38v-30zm4 0h1.5v30H42v-30zm4.5 0H48v30h-1.5v-30zm4 0H52v30h-1.5v-30zm4.5 0h1.5v30H55v-30z"/></g></svg>