<svg xmlns="http://www.w3.org/2000/svg" width="365.8" height="420.7" viewBox="0 0 342.9 394.4"><g transform="rotate(-180 171.4 526.2)" fill="none" stroke="#b58900" stroke-linecap="round" stroke-linejoin="round"><path d="M5 951.3V759.1L171.5 663l166.4 96.1v192.2l-166.4 96.1z" stroke-width="10"/><circle r="167.5" cy="855.2" cx="171.4" stroke-width="5"/></g><g style="line-height:125%"><path d="M80.1 231.2v-52.6q-14.7 11.3-19.8 11.3-2.4 0-4.3-2t-1.9-4.5q0-2.9 1.9-4.3 1.8-1.4 6.5-3.6 7-3.3 11.2-7 4.2-3.6 7.4-8 3.3-4.6 4.3-5.6t3.7-1q3 0 4.9 2.3 1.8 2.4 1.8 6.5V229q0 11.6-7.9 11.6-3.5 0-5.7-2.4-2.1-2.3-2.1-7zm101.7-33.6q0 9.5-1.1 16.3-1.2 6.8-4.3 12.4-4 6.8-10.2 10.5-6.2 3.7-13.9 3.7-8.8 0-15.8-5t-10.4-13.7q-1.8-4.8-2.7-10.6-.8-5.9-.8-12.6 0-8.8 1-15.8.8-7 2.8-12 3.4-8.4 9.9-12.7 6.5-4.4 15.6-4.4 6 0 10.8 2 4.8 1.9 8.5 5.6 3.7 3.7 6.2 9.2 4.4 9.6 4.4 27zm-15.8-1.2q0-10.6-1.3-17.3-1.3-6.8-4.3-10.2-3-3.4-8.3-3.4-7.6 0-10.7 7.6-3 7.7-3 23.8 0 10.9 1.4 17.8 1.2 7 4.2 10.5 3 3.6 8.2 3.6 5.3 0 8.3-3.7 3-3.7 4.3-10.6 1.2-7 1.2-18zm40 44.2q-3.6 0-6.2-2.3t-2.6-6.5q0-3.5 2.5-6 2.5-2.6 6.2-2.6 3.6 0 6.1 2.5 2.6 2.5 2.6 6.1 0 4.1-2.6 6.5-2.5 2.3-6 2.3zm66.7-39.4q-3.8 4.5-8.6 6.8-4.7 2.2-10.4 2.2-5.4 0-10.2-2-4.7-2.2-8.1-6-3.4-3.8-5.3-8.8-1.9-5-1.9-10.6 0-6 2.1-11.3 2.1-5.4 6-9.3 3.9-4 9.2-6.2 5.4-2.2 11.9-2.2 7.4 0 13.3 2.7 5.8 2.8 9.8 8 4 5.1 6.1 13 2.2 7.9 2.2 17.8 0 11.1-2.3 19.6-2.2 8.5-6.6 14.3-4.3 5.7-10.3 8.5-6 2.8-13.6 2.8t-13.1-2.8q-5.6-3-8.5-7.1-2.9-4.3-2.9-8.3 0-2.4 1.8-4.3 1.8-2 4.6-2 2.6 0 4.6 1.5 2 1.4 3 4.3 1.3 3.4 4.3 5.6 3 2 6.6 2 3.3 0 6.3-1.6 3-1.7 5-4.8 4.2-6.2 5-21.8zm-1.3-17.8q0-3.9-1.1-7.2-1-3.3-3-5.8-2-2.4-4.7-3.8-2.6-1.4-5.8-1.4-5.5 0-9.3 4.8-3.9 4.7-3.9 12.4t3.9 12.3q3.8 4.5 9.6 4.5 3.6 0 6.9-1.8 3.3-2 5.3-5.5 2-3.6 2-8.5z" style="-inkscape-font-specification:'Arial Rounded MT Bold, '" font-weight="400" font-size="70" font-family="Arial Rounded MT Bold" letter-spacing="0" word-spacing="0" fill="#b58900"/></g></svg>