<svg xmlns="http://www.w3.org/2000/svg" width="365.8" height="420.7" viewBox="0 0 342.9 394.4"><g transform="rotate(-180 171.4 526.2)" fill="none" stroke="#b58900" stroke-linecap="round" stroke-linejoin="round"><path d="M5 951.3V759.1L171.5 663l166.4 96.1v192.2l-166.4 96.1z" stroke-width="10"/><circle r="167.5" cy="855.2" cx="171.4" stroke-width="5"/></g><g style="line-height:125%"><path d="M125.9 232v-10.7h-29q-5.6 0-8.3-2.5-2.8-2.5-2.8-6.8 0-1 .4-2.2.4-1.1 1.3-2.3L89 205l2.2-2.8 30.6-41q3-4 5-5.9 2-1.8 4.6-1.8 8.8 0 8.8 10v44.8h2.5q4.5 0 7.2 1.2 2.7 1.3 2.7 5.4 0 3.3-2.2 4.9-2.2 1.5-6.6 1.5h-3.6V232q0 4.4-2 6.6-1.9 2.2-5.2 2.2-3.2 0-5.3-2.2-2-2.3-2-6.6zm-25-23.7h25v-33.6l-25 33.6zm72.5 32.6q-3.6 0-6.2-2.4-2.6-2.3-2.6-6.4 0-3.6 2.5-6.1 2.5-2.6 6.1-2.6 3.7 0 6.2 2.6 2.6 2.5 2.6 6 0 4.2-2.6 6.5-2.5 2.4-6 2.4zm26.3-64.8q0-5.8 3.1-10.9 3.2-5.1 9.3-8.2 6.1-3 14.3-3 6.9 0 12 1.7 5.3 1.8 8.8 5 3.4 3.1 5.1 7.1 1.7 4 1.7 8.4 0 5.7-3 10.1-2.8 4.5-8.6 7.3 4.9 2 8.1 5 3.3 3.1 4.9 7.2 1.7 4 1.7 9 0 7.4-3.6 13.3-3.5 6-10.3 9.3-6.9 3.3-16.1 3.3-9.6 0-16.4-3.3-6.9-3.4-10.3-9.2-3.5-6-3.5-13.2 0-15.6 14.7-21.4-11.9-5.5-11.9-17.5zm41.5 38.3q0-4.5-1.8-7.9-1.9-3.3-5.2-5.1-3.4-1.8-7.6-1.8-5.9 0-9.9 4-4 3.9-4 11 0 4.4 1.9 8 1.9 3.3 5.1 5.2 3.3 1.9 7.3 1.9t7.3-2q3.2-1.8 5-5.3 2-3.5 2-8zM226.7 165q-5.4 0-8.8 3.4-3.3 3.4-3.3 8.7 0 4.9 3.5 8.2 3.4 3.2 8.8 3.2 2.7 0 4.9-.8 2.2-.9 3.8-2.4 1.6-1.6 2.5-3.6.9-2.2.9-4.7 0-3.4-1.6-6.2-1.5-2.7-4.3-4.3-2.8-1.5-6.4-1.5z" style="-inkscape-font-specification:'Arial Rounded MT Bold, '" font-weight="400" font-size="70" font-family="Arial Rounded MT Bold" letter-spacing="0" word-spacing="0" fill="#b58900"/></g></svg>