<svg xmlns="http://www.w3.org/2000/svg" width="71" height="67"><g fill="#b58900" transform="translate(-25.3 -981.9)"><rect width="31" height="29.5" x="45.3" y="981.9" ry="2.3"/><g transform="translate(1.3)"><rect width="13" height="29.5" x="78" y="981.9" ry="2.3"/><rect width="17" height="29.5" x="78" y="981.9" ry="6.5"/></g><g transform="matrix(-1 0 0 1 120.3 0)"><rect width="13" height="29.5" x="78" y="981.9" ry="2.3"/><rect width="17" height="29.5" x="78" y="981.9" ry="6.5"/></g><path fill-rule="evenodd" d="M45 1025.9l30.5-4.5 5.5 3.5-4.5 4-30.5 4.5-5.5-4zm0 11l30.5-4.5 5.5 3.5-4.5 4-30.5 4.5-5.5-4zm0 11l30.5-4.9 5.5 3.4-2 2.5H45zm-4.5-34.5H81v2.5l-4.5 2-30.5 4.5-5.5-4z"/></g></svg>