<svg xmlns="http://www.w3.org/2000/svg" width="97.55" height="68.17" viewBox="0 0 91.46 63.91"><g fill="#b58900"><path d="M33.5 0a2.38 2.38 0 0 0-2.3 2.4v27a15.5 2 0 0 1 15.5-2 15.5 2 0 0 1 15.5 2v-27c0-1.27-1.03-2.4-2.3-2.4H33.5zM17.2 0c-3.9 0-6 3.6-6 6.4v21.4c8.24-1.14 8.53-.3 16.87 1.6h.13v-27c0-1.26-1.03-2.39-2.3-2.39-2.95 0-6.09-.02-8.7 0z"/><path fill-rule="evenodd" d="M31 51.6l30.4-4.5 5.5 3.5-4.5 4-30.5 4.5-5.4-4zm0 11.3l30.4-4.8 5.5 3.3-2 2.5h-34zm-4.5-23.8H67v2.5l-4.5 2L32 48.1l-5.6-4z"/><path d="M76.2 0c3.9 0 6 3.6 6 6.4v22c-1.9-1.2-12.2-1.76-16.88 1h-.12v-27A2.38 2.38 0 0 1 67.5.01c2.95 0 6.09-.02 8.7 0z"/><path d="M76.67 28.94a14.66 4.5 0 0 0-13.5 2.75 16.89 3.35 0 0 0-16.47-2.63 16.89 3.35 0 0 0-16.67 2.84 15.51 4.42 0 0 0-14.52-2.87 15.51 4.42 0 0 0-15.5 4.4H0v3.98h91.46v-3.98h-.13a14.66 4.5 0 0 0-14.66-4.5z"/></g></svg>