<svg xmlns="http://www.w3.org/2000/svg" width="71" height="67"><rect width="30.1" height="29.5" x="36.9" fill="#b58900" ry="2.3"/><rect width="17" height="29.5" x="54" fill="#b58900" ry="6.5"/><rect width="29.9" height="29.5" x="-33.9" fill="#b58900" ry="2.3" transform="scale(-1 1)"/><rect width="17" height="29.5" x="-17" fill="#b58900" ry="6.5" transform="scale(-1 1)"/><path fill="#b58900" fill-rule="evenodd" d="M19.7 44l30.5-4.5 5.5 3.5-4.5 4-30.5 4.5-5.5-4zm0 11l30.5-4.5 5.5 3.5-4.5 4-30.5 4.5-5.5-4zm0 11l30.5-4.9 5.5 3.4-2 2.5h-34zm-4.5-34.5h40.5V34l-4.5 2-30.5 4.5-5.5-4z"/></svg>